<svg width="2881" height="916" viewBox="0 0 2881 916" fill="none" xmlns="http://www.w3.org/2000/svg">
<path d="M1312.36 506.802L1358.36 342.806C1359.05 339.581 1359.73 336.649 1360.47 334.01C1361.32 331.42 1362.27 329.123 1363.43 327.169C1364.54 325.214 1366.01 323.748 1367.86 322.673C1369.81 321.647 1372.39 321.109 1375.66 321.109H1403.73C1410.48 321.109 1413.86 323.406 1413.86 327.95C1413.86 331.371 1412.91 335.72 1411.12 341.047L1298.43 673.731C1295.74 681.941 1292.21 688.144 1287.88 692.298C1283.5 696.354 1277.96 698.36 1271.21 698.36H1230.91C1226.79 698.36 1223.31 697.575 1220.36 696.015C1217.4 694.449 1214.93 692.496 1212.97 690.151C1210.96 687.805 1209.28 685.261 1207.9 682.527C1206.64 679.692 1205.64 676.857 1204.95 674.119L1153.46 519.509L1106.83 673.731C1104.3 681.941 1100.97 688.144 1096.91 692.298C1092.8 696.354 1087.47 698.36 1080.87 698.36H1033.6C1029.23 698.36 1025.64 697.575 1022.84 696.015C1020 694.449 1017.62 692.496 1015.67 690.151C1013.67 687.805 1012.08 685.212 1010.81 682.329C1009.55 679.348 1008.39 676.615 1007.44 674.119L882.937 351.993C881.09 347.448 880.195 343.148 880.195 339.092C880.195 332.984 882.095 328.488 885.893 325.605C889.691 322.624 894.332 321.109 899.82 321.109H1019.68C1024.43 321.109 1028.54 321.696 1031.91 322.869C1035.29 324.041 1038.09 325.409 1040.36 326.973C1042.57 328.537 1044.26 330.248 1045.42 332.055C1046.53 333.912 1047.43 335.525 1048.16 336.942L1108.51 506.802L1127.09 440.344L1097.97 351.993C1096.96 349.55 1096.28 347.204 1095.85 344.956C1095.43 342.61 1095.22 340.461 1095.22 338.506C1095.22 332.397 1096.96 327.95 1100.5 325.214C1104.14 322.477 1108.73 321.109 1114.21 321.109H1234.28C1239.03 321.109 1243.04 321.5 1246.31 322.282C1249.69 322.966 1252.43 323.943 1254.54 325.214C1256.65 326.533 1258.34 328.244 1259.61 330.296C1260.87 332.251 1261.98 334.499 1262.98 336.942L1312.36 506.802ZM1031.07 351.993C1029.49 347.986 1027.48 345.494 1024.95 344.565C1022.53 343.686 1020.15 343.197 1017.78 343.197H1004.91L1088.26 578.929L1098.18 542.572L1031.07 351.993ZM1245.89 352.97C1244.73 348.963 1243.36 346.325 1241.67 345.152C1239.98 343.881 1237.5 343.197 1234.28 343.197H1221.41L1290.83 584.599L1301.6 545.504L1245.89 352.97Z" fill="white"/>
<path d="M1545.82 321.109C1549.2 321.109 1552.05 321.5 1554.47 322.282C1557.01 323.064 1559.22 324.432 1561.22 326.387C1563.18 328.341 1565.02 330.882 1566.71 334.01C1568.51 337.137 1570.35 340.998 1572.2 345.542L1702.4 667.669C1703.35 670.165 1703.98 672.36 1704.29 674.318C1704.72 676.174 1704.93 678.03 1704.93 679.983C1704.93 686.24 1702.87 690.882 1698.81 693.863C1694.69 696.892 1690.42 698.36 1685.94 698.36H1525.14C1520.18 698.36 1516.07 697.871 1512.69 696.795C1509.42 695.622 1506.68 694.255 1504.46 692.69C1502.19 691.028 1500.45 689.317 1499.18 687.606C1497.92 685.799 1497.13 684.238 1496.87 682.915L1493.7 673.731H1413.94L1412.04 681.549C1411.46 684.19 1410.77 686.535 1409.92 688.585C1409.19 690.538 1408.29 692.298 1407.18 693.863C1406.02 695.331 1404.49 696.402 1402.54 697.187C1400.53 697.968 1397.95 698.36 1394.73 698.36H1365.4C1359.33 698.36 1356.33 696.16 1356.33 691.711C1356.33 690.151 1356.64 688.343 1357.38 686.24C1358.07 684.039 1358.97 681.452 1360.13 678.423L1478.72 346.129C1481.51 337.919 1484.68 331.811 1488.21 327.755C1491.85 323.748 1496.97 321.5 1503.62 321.109H1545.82ZM1422.8 641.281H1483.99L1452.55 538.661L1422.8 641.281ZM1548.99 351.602C1547.4 347.986 1545.5 345.689 1543.29 344.761C1541.18 343.735 1537.49 343.197 1532.32 343.197H1522.4L1656.4 676.271H1670.11C1673.49 676.271 1675.7 675.636 1676.86 674.318C1678.13 673.048 1678.03 670.601 1676.65 667.082L1548.99 351.602Z" fill="white"/>
<path d="M1874.84 432.72L1914.52 336.551C1915.46 334.352 1916.31 332.348 1917.05 330.492C1917.73 328.684 1918.63 327.071 1919.79 325.605C1920.9 324.188 1922.38 323.064 1924.22 322.282C1926.17 321.5 1928.71 321.109 1931.82 321.109H1964.95C1970.28 321.109 1972.97 322.477 1972.97 325.214C1972.97 327.56 1971.96 330.834 1970.01 334.987L1809.85 685.067C1808.69 687.413 1807.74 689.366 1806.9 690.931C1806.15 692.593 1805.26 693.96 1804.15 695.036C1803.15 696.208 1801.89 697.042 1800.35 697.575C1798.93 698.065 1796.87 698.36 1794.24 698.36H1757.73C1751.93 698.36 1749.07 696.698 1749.07 693.47C1749.07 691.372 1750.24 688.246 1752.66 684.088L1790.65 608.442L1650.11 343.197C1648.26 339.288 1647.37 335.965 1647.37 333.228C1647.37 328.83 1649.16 325.703 1652.85 323.846C1656.49 322.038 1660.24 321.109 1664.04 321.109H1807.95C1814.7 321.109 1819.87 322.429 1823.57 325.018C1827.21 327.511 1829.58 330.003 1830.74 332.446L1874.84 432.72ZM1813.86 351.406C1811.33 345.933 1807.16 343.197 1801.41 343.197H1787.69L1851 489.406L1861.97 463.018L1813.86 351.406Z" fill="white"/>
<path d="M2104.9 321.109C2108.28 321.109 2111.13 321.5 2113.55 322.282C2116.09 323.064 2118.3 324.432 2120.31 326.387C2122.26 328.341 2124.11 330.882 2125.79 334.01C2127.58 337.137 2129.43 340.998 2131.28 345.542L2261.48 667.669C2262.43 670.165 2263.06 672.36 2263.38 674.318C2263.8 676.174 2264.01 678.03 2264.01 679.983C2264.01 686.24 2261.95 690.882 2257.89 693.863C2253.77 696.892 2249.5 698.36 2245.02 698.36H2084.22C2079.26 698.36 2075.15 697.871 2071.77 696.795C2068.5 695.622 2065.75 694.255 2063.54 692.69C2061.27 691.028 2059.53 689.317 2058.27 687.606C2057 685.799 2056.21 684.238 2055.94 682.915L2052.78 673.731H1973.01L1971.12 681.549C1970.53 684.19 1969.85 686.535 1969.01 688.585C1968.26 690.538 1967.37 692.298 1966.26 693.863C1965.1 695.331 1963.57 696.402 1961.62 697.187C1959.62 697.968 1957.03 698.36 1953.81 698.36H1924.48C1918.41 698.36 1915.41 696.16 1915.41 691.711C1915.41 690.151 1915.72 688.343 1916.46 686.24C1917.15 684.039 1918.04 681.452 1919.2 678.423L2037.8 346.129C2040.59 337.919 2043.76 331.811 2047.29 327.755C2050.93 323.748 2056.05 321.5 2062.7 321.109H2104.9ZM1981.88 641.281H2043.07L2011.63 538.661L1981.88 641.281ZM2108.06 351.602C2106.48 347.986 2104.59 345.689 2102.37 344.761C2100.26 343.735 2096.57 343.197 2091.4 343.197H2081.48L2215.48 676.271H2229.19C2232.57 676.271 2234.78 675.636 2235.94 674.318C2237.21 673.048 2237.1 670.601 2235.73 667.082L2108.06 351.602Z" fill="white"/>
<path d="M2560.05 532.017L2493.37 645.778C2490.52 650.765 2487.14 654.87 2483.24 658.093C2479.28 661.369 2473.79 662.978 2466.78 662.978C2460.29 662.978 2454.96 661.369 2450.74 658.093C2446.52 654.72 2442.98 650.765 2440.19 646.171L2369.92 534.168C2371.02 557.915 2372.03 579.709 2372.87 599.646C2373.3 608.249 2373.61 616.851 2373.93 625.448C2374.35 633.953 2374.77 641.867 2375.19 649.297C2375.62 656.629 2375.93 663.128 2376.25 668.842C2376.51 674.463 2376.72 678.617 2376.88 681.355C2377.15 683.991 2377.15 686.337 2376.88 688.391C2376.57 690.49 2375.83 692.298 2374.56 693.863C2373.4 695.331 2371.82 696.402 2369.71 697.187C2367.7 697.968 2364.91 698.36 2361.27 698.36H2330.04C2326.66 698.36 2323.49 697.381 2320.54 695.428C2317.69 693.373 2316.32 689.317 2316.32 683.308V349.257C2316.32 346.031 2316.8 342.757 2317.8 339.483C2318.75 336.112 2320.54 333.033 2323.07 330.296C2325.71 327.56 2329.09 325.361 2333.2 323.65C2337.42 321.989 2342.54 321.109 2348.61 321.109H2439.98C2447.26 321.109 2453.54 322.38 2458.76 324.823C2464.08 327.169 2468.68 331.029 2472.48 336.356L2548.86 448.553L2599.72 357.857C2602.78 352.531 2605.73 347.644 2608.58 343.197C2611.38 338.652 2614.7 334.792 2618.5 331.665C2622.4 328.439 2627.26 325.898 2633.06 324.041C2638.81 322.086 2646.25 321.109 2655.43 321.109H2730.76C2737.94 321.109 2744.11 322.038 2749.33 323.846C2754.5 325.556 2758.72 327.902 2761.99 330.882C2765.37 333.912 2767.79 337.431 2769.38 341.438C2770.91 345.494 2771.7 349.843 2771.7 354.534V661.805C2771.7 667.281 2771.17 672.263 2770.22 676.663C2769.22 681.107 2767.27 684.97 2764.32 688.193C2761.46 691.469 2757.35 694.008 2751.86 695.816C2746.48 697.527 2739.46 698.36 2730.76 698.36H2599.72C2591.96 698.36 2585.58 697.575 2580.51 696.015C2575.45 694.449 2571.34 692.201 2568.28 689.172C2565.32 686.191 2563.21 682.431 2561.95 677.836C2560.68 673.29 2560.05 667.964 2560.05 661.805V532.017ZM2451.59 350.625C2449.16 347.106 2446.63 345.054 2443.99 344.37C2441.29 343.588 2438.4 343.197 2435.33 343.197H2421.2L2523.33 493.511L2534.93 473.182L2451.59 350.625ZM2747.43 360.007C2747.43 356.244 2747.11 353.263 2746.59 351.016C2746.01 348.67 2744.9 346.911 2743.21 345.738C2741.53 344.565 2739.25 343.881 2736.46 343.588C2733.61 343.344 2729.97 343.197 2725.48 343.197V676.271C2729.97 676.271 2733.61 676.174 2736.46 675.878C2739.25 675.636 2741.53 675.001 2743.21 673.925C2744.9 672.753 2746.01 671.09 2746.59 668.842C2747.11 666.646 2747.43 663.516 2747.43 659.459V360.007Z" fill="white"/>
<path d="M964.663 878.237H984V837.553L1018.11 787.961H994.249L974.332 819.016L954.419 787.961H930.703L964.663 837.553V878.237Z" fill="white"/>
<path d="M1106.61 881C1173.66 881 1173.66 787.961 1106.61 787.961C1039.5 787.961 1039.5 881 1106.61 881ZM1106.61 862.327C1067.6 862.327 1067.6 806.498 1106.61 806.498C1145.57 806.498 1145.57 862.327 1106.61 862.327Z" fill="white"/>
<path d="M1265.59 846.78V787.961H1246.21V846.688C1246.21 865.627 1214.6 865.627 1214.6 846.688V787.961H1195.07V846.78C1195.07 889.733 1265.59 889.733 1265.59 846.78Z" fill="white"/>
<path d="M1352.27 878.237H1374.35L1351.69 840.984C1380.31 833.278 1376.95 787.961 1342.17 787.961H1303.73V878.237H1323.21V843.746H1332.65L1352.27 878.237ZM1323.21 826.193V806.008H1340.39C1353.62 806.008 1353.62 826.193 1340.39 826.193H1323.21Z" fill="white"/>
<path d="M1512.7 873.164C1525.93 879.45 1538.06 880.118 1543.54 879.716C1561.77 878.824 1572.98 867.329 1572.98 852.31C1572.98 837.922 1559.89 829.858 1544.74 824.643C1539.16 822.903 1534.4 820.63 1533.82 815.551C1533.44 810.516 1536.57 805.84 1543.54 805.481C1546.52 805.35 1552.68 805.214 1563.41 809.271L1565.86 791.848C1553.35 787.792 1546.66 787.792 1541.61 788.059C1525.4 788.819 1514.1 800.402 1514.1 815.551C1514.1 830.701 1527.71 837.922 1542.96 843.088C1548.45 844.871 1552.68 847.144 1553.06 852.31C1553.59 857.259 1548.69 861.048 1542.96 861.402C1538.49 861.804 1526.36 861.538 1515.16 854.23L1512.7 873.164Z" fill="white"/>
<path d="M1654.89 878.102V805.873H1679.18V787.961H1611.16V805.873H1635.41V878.102H1654.89Z" fill="white"/>
<path d="M1717.35 881.533H1739.43L1743.28 871.821H1775.56L1779.55 881.533H1801.48L1760.45 787.961H1758.38L1717.35 881.533ZM1750.35 854.888L1759.49 831.403L1768.34 854.888H1750.35Z" fill="white"/>
<path d="M1914.35 873.46V833.803H1894.57V860.986C1892.8 861.204 1890.92 861.475 1889.14 861.475C1851.52 861.475 1849.74 807.561 1889.14 806.31C1899.48 806.044 1905.73 808.05 1909.58 809.562L1911.89 791.248C1910.11 790.758 1900.73 787.594 1889.14 787.996C1821.51 790.269 1824.78 879.518 1889.14 879.518C1898.37 879.518 1906.84 877.381 1914.35 873.46Z" fill="white"/>
<path d="M2002.93 878.237V860.19H1972V842.099H1997.64V824.051H1972V806.008H2001.3V787.961H1952.52V878.237H2002.93Z" fill="white"/>
<path d="M2141.29 881.533H2163.37L2167.22 871.821H2199.49L2203.49 881.533H2225.42L2184.39 787.961H2182.32L2141.29 881.533ZM2174.29 854.888L2183.43 831.403L2192.28 854.888H2174.29Z" fill="white"/>
<path d="M2303.49 880.152H2306.91L2324.66 839.739L2342.51 879.749H2346.07L2385.85 787.961H2363.91L2344.29 834.034L2325.19 788.853H2324.23L2305.13 834.034L2285.5 787.961H2263.57L2303.49 880.152Z" fill="white"/>
<path d="M2424.02 881.533H2446.09L2449.94 871.821H2482.22L2486.21 881.533H2508.15L2467.12 787.961H2465.05L2424.02 881.533ZM2457.01 854.888L2466.15 831.403L2475.01 854.888H2457.01Z" fill="white"/>
<path d="M2565.81 878.237V787.961H2546.33V878.237H2565.81Z" fill="white"/>
<path d="M2647.7 878.102V805.873H2671.99V787.961H2603.97V805.873H2628.21V878.102H2647.7Z" fill="white"/>
<path d="M2710.13 873.164C2723.36 879.45 2735.49 880.118 2740.97 879.716C2759.2 878.824 2770.41 867.329 2770.41 852.31C2770.41 837.922 2757.32 829.858 2742.17 824.643C2736.59 822.903 2731.83 820.63 2731.25 815.551C2730.87 810.516 2734 805.84 2740.97 805.481C2743.95 805.35 2750.11 805.214 2760.84 809.271L2763.29 791.848C2750.78 787.792 2744.09 787.792 2739.04 788.059C2722.84 788.819 2711.53 800.402 2711.53 815.551C2711.53 830.701 2725.14 837.922 2740.39 843.088C2745.88 844.871 2750.11 847.144 2750.49 852.31C2751.02 857.259 2746.12 861.048 2740.39 861.402C2735.92 861.804 2723.79 861.538 2712.59 854.23L2710.13 873.164Z" fill="white"/>
<mask id="mask0_758_421" style="mask-type:luminance" maskUnits="userSpaceOnUse" x="218" y="164" width="425" height="522">
<path d="M218.359 164.566H642.282V685.417H218.359V164.566Z" fill="white"/>
</mask>
<g mask="url(#mask0_758_421)">
<mask id="mask1_758_421" style="mask-type:luminance" maskUnits="userSpaceOnUse" x="224" y="174" width="414" height="510">
<path d="M637.2 680.516C637.2 681.145 636.274 682.986 636.128 683.519C636.128 683.519 636.031 683.228 635.738 682.599C635.495 681.921 635.105 680.903 634.423 679.595C621.517 602.863 505.016 557.133 458.406 541.971C436.83 532.283 416.666 520.899 394.798 511.598C368.205 500.311 343.22 485.778 321.108 467.176C215.371 378.527 204.705 260.958 250.389 174.246C205.484 315.697 357.831 436.658 404.685 463.543C510.032 523.757 631.014 562.365 636.274 673.298C636.42 675.526 637.2 678.384 637.2 680.516Z" fill="white"/>
</mask>
<g mask="url(#mask1_758_421)">
<path d="M204.68 174.246V683.519H637.175V174.246H204.68Z" fill="white"/>
</g>
</g>
<mask id="mask2_758_421" style="mask-type:luminance" maskUnits="userSpaceOnUse" x="667" y="487" width="175" height="397">
<path d="M667.172 487.02H841.728V883.858H667.172V487.02Z" fill="white"/>
</mask>
<g mask="url(#mask2_758_421)">
<mask id="mask3_758_421" style="mask-type:luminance" maskUnits="userSpaceOnUse" x="668" y="498" width="165" height="381">
<path d="M824.679 720.372C788.199 873.158 668.289 878.778 668.289 878.778C669.994 877.615 782.939 796.813 762.824 708.552C748.213 644.124 753.717 563.08 757.808 523.115C759.366 507.952 760.827 498.797 760.827 498.797C760.827 498.797 861.158 567.682 824.679 720.372Z" fill="white"/>
</mask>
<g mask="url(#mask3_758_421)">
<path d="M626.883 503.304L670.376 898.156L889.351 874.274L845.858 479.422L626.883 503.304Z" fill="white"/>
</g>
</g>
<mask id="mask4_758_421" style="mask-type:luminance" maskUnits="userSpaceOnUse" x="667" y="487" width="175" height="397">
<path d="M667.172 487.02H841.728V883.858H667.172V487.02Z" fill="white"/>
</mask>
<g mask="url(#mask4_758_421)">
<mask id="mask5_758_421" style="mask-type:luminance" maskUnits="userSpaceOnUse" x="668" y="498" width="165" height="381">
<path d="M824.679 720.372C788.199 873.158 668.289 878.778 668.289 878.778C670.529 878.148 814.694 834.55 800.083 632.982L757.954 523.115C759.512 507.952 760.973 498.797 760.973 498.797C760.973 498.797 861.158 567.682 824.679 720.372Z" fill="white"/>
</mask>
<g mask="url(#mask5_758_421)">
<path d="M626.883 503.304L670.376 898.156L889.351 874.274L845.858 479.422L626.883 503.304Z" fill="white"/>
</g>
</g>
<mask id="mask6_758_421" style="mask-type:luminance" maskUnits="userSpaceOnUse" x="555" y="41" width="250" height="99">
<path d="M555.125 41.6367H804.491V139.781H555.125V41.6367Z" fill="white"/>
</mask>
<g mask="url(#mask6_758_421)">
<mask id="mask7_758_421" style="mask-type:luminance" maskUnits="userSpaceOnUse" x="558" y="41" width="241" height="99">
<path d="M758.556 138.675C741.704 140.613 724.366 135.769 711.459 124.772C680.873 98.8558 658.907 68.6278 558.43 43.5832C558.43 43.5832 631.778 30.2616 706.686 74.1018C773.703 109.319 794.889 65.0915 795.961 63.1054C795.961 63.1054 812.667 132.378 758.556 138.675Z" fill="white"/>
</mask>
<g mask="url(#mask7_758_421)">
<path d="M558.43 41.6328V140.6H812.667V41.6328H558.43Z" fill="white"/>
</g>
</g>
<mask id="mask8_758_421" style="mask-type:luminance" maskUnits="userSpaceOnUse" x="729" y="152" width="88" height="137">
<path d="M729.648 152.168H816.927V288.581H729.648V152.168Z" fill="white"/>
</mask>
<g mask="url(#mask8_758_421)">
<mask id="mask9_758_421" style="mask-type:luminance" maskUnits="userSpaceOnUse" x="739" y="155" width="68" height="133">
<path d="M792.651 287.511C791.774 193.387 741.316 157.346 739.758 156.329C847.979 147.561 792.651 287.511 792.651 287.511Z" fill="white"/>
</mask>
<g mask="url(#mask9_758_421)">
<path d="M739.758 147.555V287.504H847.979V147.555H739.758Z" fill="white"/>
</g>
</g>
<mask id="mask10_758_421" style="mask-type:luminance" maskUnits="userSpaceOnUse" x="717" y="201" width="88" height="262">
<path d="M717.203 201.77H804.481V462.195H717.203V201.77Z" fill="white"/>
</mask>
<g mask="url(#mask10_758_421)">
<mask id="mask11_758_421" style="mask-type:luminance" maskUnits="userSpaceOnUse" x="720" y="202" width="73" height="249">
<path d="M792.541 450.193C792.297 450.048 792.151 450.048 791.907 449.902C791.664 449.805 791.518 449.805 791.226 449.66C790.738 449.418 790.203 449.273 789.667 448.982C780.316 444.671 750.314 428.588 731.757 395.308C717 368.858 716.318 336.79 729.517 309.42C743.593 280.064 764.536 255.213 753.967 202.023L754.259 202.702C757.668 209.629 785.868 269.455 766.873 346.187C747.392 423.065 790.982 449.418 792.541 450.193Z" fill="white"/>
</mask>
<g mask="url(#mask11_758_421)">
<path d="M716.305 202.023V450.193H792.527V202.023H716.305Z" fill="white"/>
</g>
</g>
<mask id="mask12_758_421" style="mask-type:luminance" maskUnits="userSpaceOnUse" x="131" y="437" width="100" height="299">
<path d="M131.109 437.402H230.856V735.031H131.109V437.402Z" fill="white"/>
</mask>
<g mask="url(#mask12_758_421)">
<mask id="mask13_758_421" style="mask-type:luminance" maskUnits="userSpaceOnUse" x="131" y="448" width="92" height="286">
<path d="M220.496 531.048C212.216 567.089 126.642 593.538 158.203 733.924C157.034 732.325 102.29 660.582 151.774 541.415C154.16 535.795 156.79 530.273 159.518 524.896C176.808 492.052 178.22 462.163 171.255 448.309C172.424 448.938 232.72 478.682 220.496 531.048Z" fill="white"/>
</mask>
<g mask="url(#mask13_758_421)">
<path d="M109.234 448.309V733.924H232.7V448.309H109.234Z" fill="white"/>
</g>
</g>
<mask id="mask14_758_421" style="mask-type:luminance" maskUnits="userSpaceOnUse" x="318" y="598" width="138" height="187">
<path d="M318.25 598.617H455.402V784.635H318.25V598.617Z" fill="white"/>
</mask>
<g mask="url(#mask14_758_421)">
<mask id="mask15_758_421" style="mask-type:luminance" maskUnits="userSpaceOnUse" x="323" y="599" width="133" height="178">
<path d="M455.142 652.259C455.142 696.003 422.12 704.238 404.976 697.311C406.048 696.536 432.397 675.56 415.545 656.329C403.418 642.571 381.306 642.959 369.568 657.249C344.973 687.089 358.269 752.68 392.605 776.271C392.605 776.271 318.867 749.144 323.25 674.64C325.734 632.495 352.083 611.132 376.923 603.139C394.992 597.374 414.62 599.457 430.644 609.582C443.307 617.429 455.142 635.111 455.142 652.259Z" fill="white"/>
</mask>
<g mask="url(#mask15_758_421)">
<path d="M318.898 597.363V776.26H455.173V597.363H318.898Z" fill="white"/>
</g>
</g>
<mask id="mask16_758_421" style="mask-type:luminance" maskUnits="userSpaceOnUse" x="330" y="611" width="113" height="174">
<path d="M330.641 611.008H442.856V784.625H330.641V611.008Z" fill="white"/>
</mask>
<g mask="url(#mask16_758_421)">
<mask id="mask17_758_421" style="mask-type:luminance" maskUnits="userSpaceOnUse" x="338" y="622" width="102" height="155">
<path d="M404.981 697.165C406.053 696.39 432.402 675.414 415.55 656.183C403.423 642.425 381.311 642.813 369.573 657.103C344.978 686.943 358.274 752.534 392.611 776.126C317.07 727.15 339.036 669.407 351.796 645.816C368.015 615.733 426.314 611.374 437.76 650.176C447.939 685.103 406.199 696.923 404.981 697.165Z" fill="white"/>
</mask>
<g mask="url(#mask17_758_421)">
<path d="M317.062 611.379V776.131H447.931V611.379H317.062Z" fill="white"/>
</g>
</g>
<path d="M392.43 776.113C369.393 762.113 347.963 742.203 340.073 715.608C333.985 695.698 336.761 674.093 344.798 655.249C347.574 648.952 350.447 642.412 355.172 637.18C357.558 634.564 360.188 632.191 363.11 630.253C382.982 616.641 414.055 615.817 430.761 634.71C439.722 645.319 443.424 661.159 437.238 673.851C430.907 686.301 417.854 693.615 404.85 697.152C417.221 692.986 429.982 685.235 435.485 673.076C439.576 664.017 438.115 653.408 433.927 644.786C421.799 619.886 386.148 618.869 365.448 633.402C362.818 635.194 360.334 637.423 358.24 639.796C353.759 644.64 351.129 650.793 348.499 656.703C340.56 674.868 337.687 695.602 343.093 714.833C350.301 740.895 370.708 760.902 392.43 776.113Z" fill="white"/>
<mask id="mask18_758_421" style="mask-type:luminance" maskUnits="userSpaceOnUse" x="517" y="152" width="113" height="149">
<path d="M517.633 152.168H629.848V300.982H517.633V152.168Z" fill="white"/>
</mask>
<g mask="url(#mask18_758_421)">
<mask id="mask19_758_421" style="mask-type:luminance" maskUnits="userSpaceOnUse" x="518" y="157" width="111" height="143">
<path d="M614.766 277.365C586.079 314.132 532.992 300.52 521.303 269.226C510.49 240.403 537.765 219.573 555.931 223.013C555.542 223.4 538.69 242.002 550.379 256.002C559.341 266.756 576.192 266.998 585.787 256.777C605.318 236.092 603.564 183.193 551.451 157.906C553.301 158.197 613.208 166.287 626.212 221.172C630.693 240.791 627.04 261.476 614.766 277.365Z" fill="white"/>
</mask>
<g mask="url(#mask19_758_421)">
<path d="M510.492 157.906V314.132H630.695V157.906H510.492Z" fill="white"/>
</g>
</g>
<mask id="mask20_758_421" style="mask-type:luminance" maskUnits="userSpaceOnUse" x="530" y="152" width="88" height="137">
<path d="M530.156 152.168H617.435V288.581H530.156V152.168Z" fill="white"/>
</mask>
<g mask="url(#mask20_758_421)">
<mask id="mask21_758_421" style="mask-type:luminance" maskUnits="userSpaceOnUse" x="535" y="157" width="79" height="130">
<path d="M610.762 253.919C606.183 268.548 594.738 280.368 579.834 284.68C568.243 287.974 552.608 287.974 541.26 271.842C523.629 246.846 555.238 223.255 556.164 223.013C555.726 223.4 538.874 242.002 550.612 256.002C559.573 266.756 576.425 266.998 586.02 256.777C605.501 236.092 603.797 183.193 551.683 157.906C614.853 177.186 618.7 228.39 610.762 253.919Z" fill="white"/>
</mask>
<g mask="url(#mask21_758_421)">
<path d="M523.609 157.906V287.974H618.68V157.906H523.609Z" fill="white"/>
</g>
</g>
<path d="M551.552 158.043C573.81 163.517 595.386 176.112 606.832 196.555C624.073 226.25 619.203 274.982 582.09 286.512C570.791 290.145 556.959 289.37 547.607 281.377C538.256 273.82 532.071 261.758 535.334 249.696C538.402 238.457 546.682 229.253 556.179 223.004C551.699 226.395 547.851 230.706 544.588 235.308C536.016 247.08 534.165 261.225 544.295 272.609C553.257 283.896 567.235 286.366 580.532 281.764C614.235 270.671 617.79 226.007 603.179 198.492C592.902 178.34 572.495 165.358 551.552 158.043Z" fill="white"/>
<mask id="mask22_758_421" style="mask-type:luminance" maskUnits="userSpaceOnUse" x="555" y="41" width="250" height="74">
<path d="M555.125 41.6367H804.491V114.978H555.125V41.6367Z" fill="white"/>
</mask>
<g mask="url(#mask22_758_421)">
<mask id="mask23_758_421" style="mask-type:luminance" maskUnits="userSpaceOnUse" x="558" y="41" width="238" height="74">
<path d="M795.961 62.9601C795.328 65.3337 781.496 142.744 720.372 104.088C683.649 81.029 653.403 48.9603 558.43 43.5832C558.43 43.5832 631.778 30.2616 706.686 74.1018C773.703 109.319 794.889 65.0915 795.961 62.9601Z" fill="white"/>
</mask>
<g mask="url(#mask23_758_421)">
<path d="M558.43 41.6328V142.732H795.961V41.6328H558.43Z" fill="white"/>
</g>
</g>
<mask id="mask24_758_421" style="mask-type:luminance" maskUnits="userSpaceOnUse" x="555" y="41" width="250" height="87">
<path d="M555.125 41.6367H804.491V127.379H555.125V41.6367Z" fill="white"/>
</mask>
<g mask="url(#mask24_758_421)">
<path d="M795.969 62.955C790.563 94.2487 771.227 126.899 734.601 113.238C733.578 112.85 731.484 112.075 730.413 111.543C727.247 110.138 723.448 108.152 720.38 106.311C700.411 93.7643 681.952 79.0863 660.619 68.865C628.767 53.4119 593.602 46.7269 558.438 43.5781C579.137 44.2563 599.934 46.194 620.097 51.0382C646.154 57.0935 671.042 68.4774 693.008 83.543C704.064 90.8577 714.584 98.8507 726.078 105.536C728.562 106.844 731.192 108.297 733.822 109.314C769.23 124.767 788.468 93.2314 795.969 62.955Z" fill="white"/>
</g>
<mask id="mask25_758_421" style="mask-type:luminance" maskUnits="userSpaceOnUse" x="729" y="201" width="76" height="262">
<path d="M729.648 201.773H804.458V462.199H729.648V201.773Z" fill="white"/>
</mask>
<g mask="url(#mask25_758_421)">
<mask id="mask26_758_421" style="mask-type:luminance" maskUnits="userSpaceOnUse" x="741" y="202" width="52" height="249">
<path d="M792.56 450.197C792.316 450.052 792.17 450.052 791.927 449.906C791.683 449.809 791.537 449.809 791.245 449.664C790.758 449.422 790.222 449.276 789.686 448.986C747.557 428.688 729.536 355.88 750.723 313.735C772.445 270.67 754.522 203.335 753.986 202.027L754.278 202.706C757.687 209.633 785.887 269.459 766.893 346.191C747.411 423.069 791.001 449.422 792.56 450.197Z" fill="white"/>
</mask>
<g mask="url(#mask26_758_421)">
<path d="M729.5 202.027H792.572V450.197H729.5V202.027Z" fill="white"/>
</g>
</g>
<path d="M792.599 450.197C750.762 433.291 733.764 374.482 742.044 333.257C743.651 325.022 747.06 316.642 750.762 309.133C756.265 296.441 758.798 282.684 759.723 268.829C760.892 246.449 758.798 223.923 754.025 202.027C763.279 234.92 767.467 273.916 755.876 306.663C754.95 309.424 751.931 315.576 750.762 318.337C748.668 323.424 747.06 328.655 746.038 334.032C737.855 373.997 753.392 431.45 792.599 450.197Z" fill="white"/>
<mask id="mask27_758_421" style="mask-type:luminance" maskUnits="userSpaceOnUse" x="109" y="425" width="48" height="125">
<path d="M109.305 425.02H156.061V549.032H109.305V425.02Z" fill="white"/>
</mask>
<g mask="url(#mask27_758_421)">
<mask id="mask28_758_421" style="mask-type:luminance" maskUnits="userSpaceOnUse" x="109" y="428" width="46" height="117">
<path d="M122.95 544.078C149.932 453.442 110.725 428.834 109.508 428.059C109.508 428.059 109.8 428.059 110.044 428.204C200.78 454.75 122.95 544.078 122.95 544.078Z" fill="white"/>
</mask>
<g mask="url(#mask28_758_421)">
<path d="M109.508 428.059V544.078H200.78V428.059H109.508Z" fill="white"/>
</g>
</g>
<mask id="mask29_758_421" style="mask-type:luminance" maskUnits="userSpaceOnUse" x="168" y="52" width="637" height="864">
<path d="M168.562 52.9766H804.447V915.926H168.562V52.9766Z" fill="white"/>
</mask>
<g mask="url(#mask29_758_421)">
<mask id="mask30_758_421" style="mask-type:luminance" maskUnits="userSpaceOnUse" x="174" y="55" width="623" height="856">
<path d="M794.161 677.529C794.161 677.917 794.015 678.304 794.015 678.692C783.641 758.282 735.813 830.849 661.977 867.762C505.052 937.179 378.761 911.65 296.353 868.052C234.742 835.451 190.519 777.271 177.466 709.065C173.667 689.3 173.765 670.456 176.833 654.083C194.464 560.299 312.28 501.926 383.242 579.676C382.463 579.046 381.537 578.368 380.369 577.738C356.26 566.063 248.574 582.582 272.391 695.162C320.462 835.451 536.125 863.208 616 754.261C624.718 742.442 630.368 728.732 633.29 714.297C634.216 709.743 634.849 705.141 635.531 700.83V700.684C636.407 693.466 636.846 686.539 636.846 679.854C636.846 677.771 636.846 675.543 636.7 673.557C631.05 566.354 515.718 526.631 405.11 463.802C394.054 457.504 348.37 421.367 316.761 384.55C282.668 344.634 205.909 204.103 326.112 119.911C330.447 116.907 334.781 114.049 339.165 111.143C596.275 -55.4017 836.047 189.716 700.308 326.323C625.254 401.844 541.921 316.344 541.921 316.344C636.7 333.395 655.792 291.88 671.572 247.459C688.96 177.024 608.5 101.842 524.144 117.295C497.649 122.139 470.813 136.042 446.46 161.813C418.163 191.944 409.835 235.833 426.297 273.666C451.964 332.475 517.958 372.537 529.112 375.54C497.795 353.693 464.627 324.482 462.387 283.984C471.738 295.804 481.722 323.174 520.588 347.783C568.757 378.301 604.701 387.312 664.218 434.737C668.552 438.273 672.887 441.664 677.124 445.2C753.98 508.078 807.457 568.825 794.161 677.529Z" fill="white"/>
</mask>
<g mask="url(#mask30_758_421)">
<path d="M173.617 41.625V915.91H835.997V41.625H173.617Z" fill="white"/>
</g>
</g>
<mask id="mask31_758_421" style="mask-type:luminance" maskUnits="userSpaceOnUse" x="355" y="325" width="363" height="448">
<path d="M355.664 325.789H717.245V772.233H355.664V325.789Z" fill="white"/>
</mask>
<g mask="url(#mask31_758_421)">
<mask id="mask32_758_421" style="mask-type:luminance" maskUnits="userSpaceOnUse" x="357" y="333" width="358" height="431">
<path d="M668.591 763.048C668.591 763.048 709.698 651.098 654.808 582.31C624.66 544.477 574.056 514.103 528.81 490.512C483.369 467.115 407.926 439.987 357.906 333.898C359.611 335.497 427.797 397.406 482.054 420.61C608.198 474.672 683.203 511.1 708.091 600.767C726.647 667.956 699.665 717.464 668.591 763.048Z" fill="white"/>
</mask>
<g mask="url(#mask32_758_421)">
<path d="M357.906 333.898H726.696V763H357.906V333.898Z" fill="white"/>
</g>
</g>
<path d="M668.396 763.035C681.449 743.659 693.82 719.001 702.538 693.618C712.522 665.182 713.691 633.404 705.558 604.29C702.1 590.678 696.84 577.211 689.875 564.229C661.578 512.008 606.006 481.732 556.133 457.51C532.17 445.981 508.597 435.76 480.251 423.456C472.264 419.919 464.861 416.141 458.139 412.362C426.287 394.003 395.603 367.795 357.711 334.031C395.116 366.924 429.209 388.771 461.208 407.082C467.637 410.764 474.894 414.3 482.784 417.836C506.211 427.912 532.949 439.296 558.86 451.746C609.561 476.112 666.058 506.631 695.427 561.225C702.538 574.741 708.042 588.74 711.451 602.74C719.779 633.113 718.562 666.103 708.042 695.604C698.983 721.52 681.839 743.513 668.396 763.035Z" fill="white"/>
<mask id="mask33_758_421" style="mask-type:luminance" maskUnits="userSpaceOnUse" x="355" y="325" width="350" height="448">
<path d="M355.664 325.789H704.777V772.233H355.664V325.789Z" fill="white"/>
</mask>
<g mask="url(#mask33_758_421)">
<mask id="mask34_758_421" style="mask-type:luminance" maskUnits="userSpaceOnUse" x="357" y="333" width="341" height="431">
<path d="M668.592 763.048C668.592 763.048 709.698 651.098 654.808 582.31C624.66 544.477 574.056 514.103 528.81 490.512C483.369 467.115 407.926 439.987 357.906 333.898C359.221 335.885 401.204 411.454 492.866 446.672C591.054 484.505 671.368 538.325 688.755 596.213C703.22 645.188 702.198 704.772 668.592 763.048Z" fill="white"/>
</mask>
<g mask="url(#mask34_758_421)">
<path d="M365.443 283.219L295.406 753.835L702.137 813.709L772.173 343.093L365.443 283.219Z" fill="white"/>
</g>
</g>
<mask id="mask35_758_421" style="mask-type:luminance" maskUnits="userSpaceOnUse" x="280" y="52" width="463" height="398">
<path d="M280.742 52.9766H742.07V449.815H280.742V52.9766Z" fill="white"/>
</mask>
<g mask="url(#mask35_758_421)">
<mask id="mask36_758_421" style="mask-type:luminance" maskUnits="userSpaceOnUse" x="291" y="55" width="449" height="391">
<path d="M670.852 247.355C689.019 177.017 608.559 101.835 524.203 117.288C509.056 120.049 493.763 125.814 479.006 134.969C467.852 141.896 456.894 150.713 446.52 161.806C418.223 191.937 409.894 235.826 426.356 273.659C452.023 332.468 518.018 372.53 529.171 375.533C497.854 353.686 464.687 324.475 462.446 283.977C471.797 295.797 481.782 323.167 520.648 347.776C568.816 378.294 604.76 387.305 664.277 434.73C668.612 438.266 672.946 441.657 677.184 445.193C578.801 380.377 479.298 428.19 379.649 341.769C209.67 208.94 338.688 110.99 338.688 110.99C595.799 -55.5541 835.57 189.564 699.831 326.171C625.557 400.82 543.149 318.032 541.445 316.191C636.077 333.388 655.072 291.728 670.852 247.355Z" fill="white"/>
</mask>
<g mask="url(#mask36_758_421)">
<path d="M209.641 41.6289V445.201H835.541V41.6289H209.641Z" fill="white"/>
</g>
</g>
<mask id="mask37_758_421" style="mask-type:luminance" maskUnits="userSpaceOnUse" x="405" y="449" width="412" height="467">
<path d="M405.469 449.82H816.923V915.931H405.469V449.82Z" fill="white"/>
</mask>
<g mask="url(#mask37_758_421)">
<mask id="mask38_758_421" style="mask-type:luminance" maskUnits="userSpaceOnUse" x="408" y="450" width="409" height="463">
<path d="M683.315 450.211C683.315 450.211 806.926 543.026 763.336 683.557C719.794 824.04 582.448 923.055 408.914 906.44C408.914 906.44 587.075 945.048 721.207 828.399C767.281 788.192 799.669 734.373 811.553 674.402C845.646 502.335 683.315 450.211 683.315 450.211Z" fill="white"/>
</mask>
<g mask="url(#mask38_758_421)">
<path d="M408.914 450.211V915.934H845.646V450.211H408.914Z" fill="white"/>
</g>
</g>
<path d="M667.492 829.397C782.97 717.835 815.651 559.671 683.467 450.191C812.972 540.778 794.805 731.059 667.492 829.397Z" fill="white"/>
<mask id="mask39_758_421" style="mask-type:luminance" maskUnits="userSpaceOnUse" x="143" y="437" width="88" height="299">
<path d="M143.555 437.402H230.833V735.031H143.555V437.402Z" fill="white"/>
</mask>
<g mask="url(#mask39_758_421)">
<mask id="mask40_758_421" style="mask-type:luminance" maskUnits="userSpaceOnUse" x="144" y="448" width="79" height="286">
<path d="M220.564 531.048C212.285 567.089 126.711 593.538 158.271 733.924C124.86 619.213 159.586 572.563 183.062 531.193C206.343 490.211 172.103 449.374 171.324 448.309C172.493 448.938 232.789 478.682 220.564 531.048Z" fill="white"/>
</mask>
<g mask="url(#mask40_758_421)">
<path d="M124.836 448.309V733.924H232.765V448.309H124.836Z" fill="white"/>
</g>
</g>
<path d="M158.272 733.966C99.9727 551.145 237.417 547.076 171.325 448.496C245.307 543.152 101.921 551.775 158.272 733.966Z" fill="white"/>
<mask id="mask41_758_421" style="mask-type:luminance" maskUnits="userSpaceOnUse" x="305" y="77" width="226" height="274">
<path d="M305.695 77.7656H530.125V350.592H305.695V77.7656Z" fill="white"/>
</mask>
<g mask="url(#mask41_758_421)">
<mask id="mask42_758_421" style="mask-type:luminance" maskUnits="userSpaceOnUse" x="310" y="78" width="214" height="271">
<path d="M523.474 78.3175C523.474 78.3175 379.455 105.009 358.122 191.963C336.79 278.917 431.179 348.044 431.179 348.044C431.179 348.044 287.793 297.228 314.24 179.804C338.494 72.6498 523.474 78.3175 523.474 78.3175Z" fill="white"/>
</mask>
<g mask="url(#mask42_758_421)">
<path d="M287.836 72.6406V348.035H523.516V72.6406H287.836Z" fill="white"/>
</g>
</g>
<path d="M431.368 348.044C369.465 326.439 294.558 265.014 309.559 188.815C329.966 86.1657 447.149 80.0135 523.371 77.7852L523.517 78.1727C450.314 81.1761 335.762 91.7849 315.89 189.735C298.649 274.751 396.35 336.515 431.368 348.044Z" fill="white"/>
<mask id="mask43_758_421" style="mask-type:luminance" maskUnits="userSpaceOnUse" x="729" y="152" width="88" height="137">
<path d="M729.648 152.168H816.927V288.581H729.648V152.168Z" fill="white"/>
</mask>
<g mask="url(#mask43_758_421)">
<mask id="mask44_758_421" style="mask-type:luminance" maskUnits="userSpaceOnUse" x="739" y="155" width="68" height="133">
<path d="M792.651 287.511C817.539 159.962 745.554 159.72 739.758 156.329C847.979 147.561 792.651 287.511 792.651 287.511Z" fill="white"/>
</mask>
<g mask="url(#mask44_758_421)">
<path d="M739.758 147.555V287.504H847.979V147.555H739.758Z" fill="white"/>
</g>
</g>
<path d="M792.594 287.517C798 249.975 803.406 197.948 771.164 170.723C767.316 167.575 763.128 164.959 758.501 162.876C752.607 159.727 745.74 158.661 739.555 156.336C746.032 158.177 752.851 158.952 759.036 161.713C765.222 164.329 771.164 167.865 776.18 172.564C805.939 200.564 800.922 251.38 792.594 287.517Z" fill="white"/>
<mask id="mask45_758_421" style="mask-type:luminance" maskUnits="userSpaceOnUse" x="218" y="561" width="425" height="311">
<path d="M218.359 561.406H642.282V871.436H218.359V561.406Z" fill="white"/>
</mask>
<g mask="url(#mask45_758_421)">
<mask id="mask46_758_421" style="mask-type:luminance" maskUnits="userSpaceOnUse" x="223" y="566" width="415" height="302">
<path d="M466.877 865.443C423.044 871.062 381.84 862.537 341.658 843.838C283.213 816.565 238.162 763.036 227.106 711.687C217.121 665.619 224.086 624.879 274.641 587.966C333.087 545.385 382.716 579.682 383.642 580.361C373.803 566.07 275.177 572.222 268.992 656.56C267.53 677.003 272.157 697.3 281.216 715.466C342.048 838.073 531.362 854.011 608.023 765.265C621.416 749.812 629.988 730.677 633.544 710.525C635.93 697.155 636.856 691.245 636.32 679.764C647.376 801.257 547.581 855.076 466.877 865.443Z" fill="white"/>
</mask>
<g mask="url(#mask46_758_421)">
<path d="M217.125 545.398V871.075H647.38V545.398H217.125Z" fill="white"/>
</g>
</g>
<mask id="mask47_758_421" style="mask-type:luminance" maskUnits="userSpaceOnUse" x="380" y="102" width="163" height="286">
<path d="M380.539 102.59H542.627V387.818H380.539V102.59Z" fill="white"/>
</mask>
<g mask="url(#mask47_758_421)">
<mask id="mask48_758_421" style="mask-type:luminance" maskUnits="userSpaceOnUse" x="390" y="103" width="146" height="276">
<path d="M535.913 378.428C491.153 371.113 377.282 312.304 391.212 222.25C406.115 126.916 535.815 103.082 535.815 103.082C535.815 103.082 531.188 108.411 524.077 117.469C497.631 122.314 470.746 136.217 446.394 161.988C418.097 192.119 409.817 235.959 426.23 273.841C452.19 332.504 524.711 375.424 535.913 378.428Z" fill="white"/>
</mask>
<g mask="url(#mask48_758_421)">
<path d="M377.242 103.082V378.428H535.872V103.082H377.242Z" fill="white"/>
</g>
</g>
<mask id="mask49_758_421" style="mask-type:luminance" maskUnits="userSpaceOnUse" x="442" y="114" width="238" height="212">
<path d="M442.844 114.961H679.742V325.781H442.844V114.961Z" fill="white"/>
</mask>
<g mask="url(#mask49_758_421)">
<mask id="mask50_758_421" style="mask-type:luminance" maskUnits="userSpaceOnUse" x="444" y="115" width="230" height="205">
<path d="M670.697 247.349C660.031 289.881 635.825 333.237 540.998 316.185C629.494 317.397 636.215 264.498 636.215 264.498C636.215 264.498 670.162 171.101 573.289 136.416C472.178 100.279 444.758 216.152 444.758 216.152C444.904 208.062 445.683 200.457 446.998 193.239C454.255 154.873 484.793 124.645 523.367 117.427C523.513 117.427 523.659 117.427 523.756 117.282C608.405 101.829 688.864 177.011 670.697 247.349Z" fill="white"/>
</mask>
<g mask="url(#mask50_758_421)">
<path d="M444.758 100.27V333.228H688.864V100.27H444.758Z" fill="white"/>
</g>
</g>
<mask id="mask51_758_421" style="mask-type:luminance" maskUnits="userSpaceOnUse" x="467" y="90" width="238" height="249">
<path d="M467.758 90.1758H704.656V338.2H467.758V90.1758Z" fill="white"/>
</mask>
<g mask="url(#mask51_758_421)">
<mask id="mask52_758_421" style="mask-type:luminance" maskUnits="userSpaceOnUse" x="478" y="99" width="223" height="235">
<path d="M678.222 291.09C620.313 368.888 542.775 317.297 541.168 316.231C635.947 333.283 662.052 286.391 670.868 247.395C688.888 177.057 608.429 101.874 524.073 117.327C508.926 120.089 493.632 125.853 478.875 135.009C496.944 118.103 519.056 105.701 541.168 101.341C573.41 95.0924 608.575 108.414 632.83 121.009C662.442 136.317 685.187 162.233 695.366 193.818C704.035 220.897 704.815 255.485 678.222 291.09Z" fill="white"/>
</mask>
<g mask="url(#mask52_758_421)">
<path d="M478.875 95.082V368.877H704.815V95.082H478.875Z" fill="white"/>
</g>
</g>
<path d="M478.961 134.975C497.566 116.907 521.09 102.761 547.05 98.8376C549.436 98.5954 552.992 98.2078 555.329 98.2078L559.567 98.0625C561.028 98.0625 564.437 98.2078 565.752 98.2078C577.441 98.9829 589.179 101.308 600.381 104.844C621.324 111.675 641.974 121.121 658.972 135.363C688.731 160.262 707.141 199.791 702.806 238.69C699.494 266.448 684.25 291.589 663.94 310.433C647.77 325.499 625.902 335.09 603.644 335.187C581.678 335.332 559.713 328.26 541.4 316.198C560.102 327.097 581.825 333.492 603.547 332.571C625.123 331.796 645.676 322.253 661.213 307.43C683.325 286.212 699.007 257.147 698.472 226.241C697.936 191.556 679.915 158.179 652.787 136.574C639.198 125.578 623.126 117.972 606.956 111.529C589.422 104.844 570.623 100.291 551.677 101.453C524.256 103.294 499.125 117.294 478.961 134.975Z" fill="white"/>
<mask id="mask53_758_421" style="mask-type:luminance" maskUnits="userSpaceOnUse" x="218" y="164" width="425" height="522">
<path d="M218.359 164.566H642.282V685.417H218.359V164.566Z" fill="white"/>
</mask>
<g mask="url(#mask53_758_421)">
<mask id="mask54_758_421" style="mask-type:luminance" maskUnits="userSpaceOnUse" x="224" y="174" width="412" height="509">
<path d="M635.738 682.599C635.495 681.92 635.105 680.903 634.423 679.595C621.517 602.863 505.016 557.133 458.406 541.971C436.83 532.282 416.666 520.899 394.798 511.598C368.205 500.311 343.22 485.778 321.108 467.176C215.371 378.527 204.705 260.958 250.389 174.246C248.393 178.945 174.021 360.216 389.002 476.865C606.906 595.112 614.552 603.638 635.495 674.218C634.813 675.139 636.031 682.356 635.738 682.599Z" fill="white"/>
</mask>
<g mask="url(#mask54_758_421)">
<path d="M174 174.246V682.599H636.01V174.246H174Z" fill="white"/>
</g>
</g>
<path d="M250.294 174.414C231.348 228.379 233.297 289.755 256.626 342.024C264.76 359.851 275.182 376.612 287.31 392.065C289.258 394.535 295.443 401.608 297.684 404.224C301.093 407.906 305.33 412.072 308.886 415.753C311.126 418.127 318.091 424.279 320.721 426.75C325.056 430.819 332.605 436.583 337.183 440.507C342.443 444.286 349.31 449.517 354.571 453.054C357.736 455.185 365.091 459.884 368.11 461.822C390.661 475.579 424.997 493.551 448.327 506.631C489.141 529.544 530.734 552.215 569.162 579.052C577.978 585.301 586.793 591.986 594.732 599.349C618.013 619.501 627.997 645.418 635.546 674.386C635.108 676.324 635.546 678.552 635.644 680.635C635.644 681.313 635.79 682.088 635.644 682.767C635.644 682.088 635.546 681.313 635.546 680.635C635.4 678.843 634.718 675.791 635.108 674.483C630.773 660.871 626.438 647.016 619.717 634.276C608.954 613.494 590.495 598.138 571.695 584.816C520.068 549.696 462.402 520.631 407.756 490.257C392.755 482.119 374.734 472.576 360.61 463.275C351.941 457.898 342.054 450.583 333.92 444.576C330.364 441.524 322.718 435.372 319.162 432.369C310.347 424.376 301.921 416.286 293.982 407.518C292.57 405.774 285.069 397.006 283.462 394.923C234.368 333.111 221.315 247.852 250.294 174.414Z" fill="white"/>
<mask id="mask55_758_421" style="mask-type:luminance" maskUnits="userSpaceOnUse" x="268" y="524" width="375" height="298">
<path d="M268.203 524.203H642.253V821.832H268.203V524.203Z" fill="white"/>
</mask>
<g mask="url(#mask55_758_421)">
<mask id="mask56_758_421" style="mask-type:luminance" maskUnits="userSpaceOnUse" x="268" y="533" width="370" height="289">
<path d="M637.134 700.687C636.598 705.289 635.819 709.745 634.893 714.299C631.971 728.735 626.321 742.347 617.506 754.264C543.134 855.363 351.044 838.698 285.05 723.987C274.384 705.385 268.198 684.458 268.588 663.095C269.805 579.581 358.934 567.228 380.656 577.74C381.971 578.515 383.14 579.436 384.358 580.453C384.358 580.453 276.234 615.428 323.137 729.51C362.198 824.553 499.69 800.865 544.06 749.419C581.026 706.451 591.157 611.359 440.563 533.852C443.436 534.627 620.136 584.522 636.208 679.856C637.377 686.396 637.767 693.469 637.134 700.687Z" fill="white"/>
</mask>
<g mask="url(#mask56_758_421)">
<path d="M268.203 533.852V855.363H637.772V533.852H268.203Z" fill="white"/>
</g>
</g>
<path d="M487.92 550.223C552.989 575.509 653.807 629.038 637.637 711.535C635.007 728.974 627.75 746.123 616.305 759.735C615.769 760.51 612.603 764.192 612.214 764.967C611.678 765.5 609.973 767.341 609.438 767.874C607.343 770.199 604.324 773.347 602.083 775.479C518.896 852.696 366.305 833.077 297.437 745.881C295.44 742.974 289.937 735.902 288.33 732.898C285.699 728.587 282.534 723.743 280.293 719.141C265.974 690.85 262.127 656.311 274.644 626.713C285.553 600.263 311.756 582.679 339.274 576.817C352.473 574.056 368.253 572.361 380.917 577.738C382.329 578.513 383.644 579.579 384.716 580.741C381.16 581.904 377.605 583.357 374.195 584.907C377.459 583.357 380.917 581.807 384.472 580.451V580.741C383.254 579.676 382.085 578.755 380.77 578.125C374.293 575.364 367.182 575.122 360.217 575.219C353.252 575.509 346.385 576.527 339.567 578.125C312.828 584.52 287.696 601.959 277.274 627.876C265.585 656.699 269.627 690.075 283.849 717.3C285.992 721.757 289.109 726.359 291.788 730.525C293.492 733.286 298.752 740.358 300.7 743.12C367.328 827.457 518.214 846.689 598.674 772.185C601.012 770.199 603.788 766.953 605.882 764.87L607.587 763.029L608.512 762.109L609.34 761.043L612.603 756.974C623.659 743.895 630.673 727.666 633.4 710.905C650.641 631.17 550.359 576.527 487.92 550.223Z" fill="white"/>
<mask id="mask57_758_421" style="mask-type:luminance" maskUnits="userSpaceOnUse" x="109" y="425" width="48" height="125">
<path d="M109.305 425.02H156.061V549.032H109.305V425.02Z" fill="white"/>
</mask>
<g mask="url(#mask57_758_421)">
<mask id="mask58_758_421" style="mask-type:luminance" maskUnits="userSpaceOnUse" x="110" y="428" width="45" height="117">
<path d="M122.993 544.065C171.989 453.72 116.125 430.129 110.086 428.191C200.822 454.738 122.993 544.065 122.993 544.065Z" fill="white"/>
</mask>
<g mask="url(#mask58_758_421)">
<path d="M110.086 428.191V544.065H200.822V428.191H110.086Z" fill="white"/>
</g>
</g>
<mask id="mask59_758_421" style="mask-type:luminance" maskUnits="userSpaceOnUse" x="109" y="425" width="35" height="125">
<path d="M109.305 425.02H143.593V549.032H109.305V425.02Z" fill="white"/>
</mask>
<g mask="url(#mask59_758_421)">
<path d="M122.968 544.085C143.229 508.577 152.873 450.058 109.672 428.211C160.617 447.975 142.84 513.421 122.968 544.085Z" fill="white"/>
</g>
</svg>
