<svg width="32" height="32" viewBox="0 0 32 32" fill="none" xmlns="http://www.w3.org/2000/svg">
<g clip-path="url(#clip0_233_2)">
<path d="M26.125 16.5C26.125 21.8157 21.8157 26.125 16.5 26.125C11.1843 26.125 6.875 21.8157 6.875 16.5C6.875 11.1843 11.1843 6.875 16.5 6.875C21.8157 6.875 26.125 11.1843 26.125 16.5ZM8.63098 16.5C8.63098 20.8459 12.1541 24.369 16.5 24.369C20.8459 24.369 24.369 20.8459 24.369 16.5C24.369 12.1541 20.8459 8.63098 16.5 8.63098C12.1541 8.63098 8.63098 12.1541 8.63098 16.5Z" fill="url(#paint0_linear_233_2)"/>
<path d="M16.5 10.375C16.0167 10.375 15.625 10.7667 15.625 11.25V16.9084C15.625 16.9084 15.625 17.1365 15.7359 17.3081C15.8101 17.4536 15.9257 17.58 16.0777 17.6678L20.12 20.0017C20.5386 20.2432 21.0737 20.0998 21.3153 19.6813C21.5569 19.2628 21.4136 18.7277 20.995 18.4861L17.375 16.396V11.25C17.375 10.7668 16.9833 10.375 16.5 10.375Z" fill="url(#paint1_linear_233_2)"/>
</g>
<defs>
<linearGradient id="paint0_linear_233_2" x1="6.875" y1="13.1823" x2="26.2394" y2="13.4983" gradientUnits="userSpaceOnUse">
<stop stop-color="#FACAFB"/>
<stop offset="0.294" stop-color="#B17DEC"/>
<stop offset="0.699" stop-color="#C23BD6"/>
<stop offset="1" stop-color="#FA9777"/>
</linearGradient>
<linearGradient id="paint1_linear_233_2" x1="15.625" y1="13.5676" x2="21.4682" y2="13.6245" gradientUnits="userSpaceOnUse">
<stop stop-color="#FACAFB"/>
<stop offset="0.294" stop-color="#B17DEC"/>
<stop offset="0.699" stop-color="#C23BD6"/>
<stop offset="1" stop-color="#FA9777"/>
</linearGradient>
<clipPath id="clip0_233_2">
<rect width="21" height="21" fill="white" transform="translate(6 6)"/>
</clipPath>
</defs>
</svg>
